<mxfile host="65bd71144e">
    <diagram id="3fErZBgm0IKbXoDtWIPm" name="Page-1">
        <mxGraphModel dx="734" dy="316" grid="1" gridSize="10" guides="1" tooltips="1" connect="1" arrows="1" fold="1" page="1" pageScale="1" pageWidth="850" pageHeight="1100" math="0" shadow="0">
            <root>
                <mxCell id="0"/>
                <mxCell id="1" parent="0"/>
                <mxCell id="2" value="" style="whiteSpace=wrap;html=1;" vertex="1" parent="1">
                    <mxGeometry x="60" y="50" width="300" height="90" as="geometry"/>
                </mxCell>
                <mxCell id="3" value="LOGO" style="text;html=1;resizable=0;autosize=1;align=center;verticalAlign=middle;points=[];fillColor=none;strokeColor=none;rounded=0;" vertex="1" parent="1">
                    <mxGeometry x="60" y="50" width="50" height="20" as="geometry"/>
                </mxCell>
                <mxCell id="4" value="NAVIGATION" style="text;html=1;resizable=0;autosize=1;align=center;verticalAlign=middle;points=[];fillColor=none;strokeColor=none;rounded=0;" vertex="1" parent="1">
                    <mxGeometry x="270" y="50" width="90" height="20" as="geometry"/>
                </mxCell>
                <mxCell id="7" value="" style="whiteSpace=wrap;html=1;fillColor=#fa6800;fontColor=#000000;strokeColor=#C73500;" vertex="1" parent="1">
                    <mxGeometry x="230" y="70" width="120" height="60" as="geometry"/>
                </mxCell>
                <mxCell id="8" value="CONTENT" style="whiteSpace=wrap;html=1;" vertex="1" parent="1">
                    <mxGeometry x="70" y="70" width="120" height="60" as="geometry"/>
                </mxCell>
                <mxCell id="9" value="" style="whiteSpace=wrap;html=1;fillColor=#fa6800;fontColor=#000000;strokeColor=#C73500;" vertex="1" parent="1">
                    <mxGeometry x="90" y="110" width="30" height="10" as="geometry"/>
                </mxCell>
                <mxCell id="10" value="" style="whiteSpace=wrap;html=1;fillColor=#fa6800;fontColor=#000000;strokeColor=#C73500;" vertex="1" parent="1">
                    <mxGeometry x="150" y="110" width="30" height="10" as="geometry"/>
                </mxCell>
                <mxCell id="16" value="&lt;h2&gt;&lt;font style=&quot;font-size: 14px&quot;&gt;HERO&lt;/font&gt;&lt;/h2&gt;" style="text;html=1;resizable=0;autosize=1;align=center;verticalAlign=middle;points=[];fillColor=none;strokeColor=none;rounded=0;" vertex="1" parent="1">
                    <mxGeometry x="370" y="60" width="60" height="50" as="geometry"/>
                </mxCell>
                <mxCell id="17" value="" style="whiteSpace=wrap;html=1;fontSize=14;" vertex="1" parent="1">
                    <mxGeometry x="60" y="140" width="300" height="60" as="geometry"/>
                </mxCell>
                <mxCell id="22" value="" style="ellipse;whiteSpace=wrap;html=1;fontSize=14;fillColor=#fa6800;fontColor=#000000;strokeColor=#C73500;" vertex="1" parent="1">
                    <mxGeometry x="80" y="160" width="20" height="20" as="geometry"/>
                </mxCell>
                <mxCell id="25" value="" style="ellipse;whiteSpace=wrap;html=1;fontSize=14;fillColor=#fa6800;fontColor=#000000;strokeColor=#C73500;" vertex="1" parent="1">
                    <mxGeometry x="120" y="160" width="20" height="20" as="geometry"/>
                </mxCell>
                <mxCell id="26" value="" style="ellipse;whiteSpace=wrap;html=1;fontSize=14;fillColor=#fa6800;fontColor=#000000;strokeColor=#C73500;" vertex="1" parent="1">
                    <mxGeometry x="160" y="160" width="20" height="20" as="geometry"/>
                </mxCell>
                <mxCell id="27" value="" style="ellipse;whiteSpace=wrap;html=1;fontSize=14;fillColor=#fa6800;fontColor=#000000;strokeColor=#C73500;" vertex="1" parent="1">
                    <mxGeometry x="200" y="160" width="20" height="20" as="geometry"/>
                </mxCell>
                <mxCell id="28" value="" style="ellipse;whiteSpace=wrap;html=1;fontSize=14;fillColor=#fa6800;fontColor=#000000;strokeColor=#C73500;" vertex="1" parent="1">
                    <mxGeometry x="240" y="160" width="20" height="20" as="geometry"/>
                </mxCell>
                <mxCell id="29" value="" style="ellipse;whiteSpace=wrap;html=1;fontSize=14;fillColor=#fa6800;fontColor=#000000;strokeColor=#C73500;" vertex="1" parent="1">
                    <mxGeometry x="280" y="160" width="20" height="20" as="geometry"/>
                </mxCell>
                <mxCell id="30" value="" style="ellipse;whiteSpace=wrap;html=1;fontSize=14;fillColor=#fa6800;fontColor=#000000;strokeColor=#C73500;" vertex="1" parent="1">
                    <mxGeometry x="320" y="160" width="20" height="20" as="geometry"/>
                </mxCell>
                <mxCell id="31" value="" style="whiteSpace=wrap;html=1;fontSize=14;" vertex="1" parent="1">
                    <mxGeometry x="60" y="200" width="300" height="230" as="geometry"/>
                </mxCell>
                <mxCell id="44" value="" style="edgeStyle=none;html=1;fontSize=14;" edge="1" parent="1" source="34" target="40">
                    <mxGeometry relative="1" as="geometry"/>
                </mxCell>
                <mxCell id="34" value="" style="whiteSpace=wrap;html=1;fillColor=#fa6800;fontColor=#000000;strokeColor=#C73500;" vertex="1" parent="1">
                    <mxGeometry x="265" y="220" width="50" height="60" as="geometry"/>
                </mxCell>
                <mxCell id="46" value="" style="edgeStyle=none;html=1;fontSize=14;" edge="1" parent="1" source="36" target="41">
                    <mxGeometry relative="1" as="geometry"/>
                </mxCell>
                <mxCell id="36" value="" style="whiteSpace=wrap;html=1;fillColor=#fa6800;fontColor=#000000;strokeColor=#C73500;" vertex="1" parent="1">
                    <mxGeometry x="90" y="280" width="50" height="60" as="geometry"/>
                </mxCell>
                <mxCell id="37" value="" style="whiteSpace=wrap;html=1;fillColor=#fa6800;fontColor=#000000;strokeColor=#C73500;" vertex="1" parent="1">
                    <mxGeometry x="265" y="350" width="50" height="60" as="geometry"/>
                </mxCell>
                <mxCell id="43" value="" style="edgeStyle=none;html=1;fontSize=14;" edge="1" parent="1" source="39" target="34">
                    <mxGeometry relative="1" as="geometry"/>
                </mxCell>
                <mxCell id="39" value="CONTENT" style="whiteSpace=wrap;html=1;fontSize=14;" vertex="1" parent="1">
                    <mxGeometry x="90" y="220" width="100" height="40" as="geometry"/>
                </mxCell>
                <mxCell id="45" value="" style="edgeStyle=none;html=1;fontSize=14;" edge="1" parent="1" source="40" target="36">
                    <mxGeometry relative="1" as="geometry"/>
                </mxCell>
                <mxCell id="40" value="&#10;&#10;&lt;span style=&quot;color: rgb(240, 240, 240); font-family: helvetica; font-size: 14px; font-style: normal; font-weight: 400; letter-spacing: normal; text-align: center; text-indent: 0px; text-transform: none; word-spacing: 0px; background-color: rgb(42, 42, 42); display: inline; float: none;&quot;&gt;CONTENT&lt;/span&gt;&#10;&#10;" style="whiteSpace=wrap;html=1;fontSize=14;" vertex="1" parent="1">
                    <mxGeometry x="215" y="300" width="100" height="40" as="geometry"/>
                </mxCell>
                <mxCell id="47" value="" style="edgeStyle=none;html=1;fontSize=14;" edge="1" parent="1" source="41" target="37">
                    <mxGeometry relative="1" as="geometry"/>
                </mxCell>
                <mxCell id="41" value="&#10;&#10;&lt;span style=&quot;color: rgb(240, 240, 240); font-family: helvetica; font-size: 14px; font-style: normal; font-weight: 400; letter-spacing: normal; text-align: center; text-indent: 0px; text-transform: none; word-spacing: 0px; background-color: rgb(42, 42, 42); display: inline; float: none;&quot;&gt;CONTENT&lt;/span&gt;&#10;&#10;" style="whiteSpace=wrap;html=1;fontSize=14;" vertex="1" parent="1">
                    <mxGeometry x="90" y="370" width="100" height="40" as="geometry"/>
                </mxCell>
                <mxCell id="48" value="" style="whiteSpace=wrap;html=1;fontSize=14;" vertex="1" parent="1">
                    <mxGeometry x="60" y="430" width="300" height="200" as="geometry"/>
                </mxCell>
                <mxCell id="49" value="CONTENT" style="whiteSpace=wrap;html=1;fontSize=14;" vertex="1" parent="1">
                    <mxGeometry x="90" y="440" width="240" height="30" as="geometry"/>
                </mxCell>
                <mxCell id="50" value="" style="whiteSpace=wrap;html=1;fontSize=14;fillColor=#fa6800;fontColor=#000000;strokeColor=#C73500;" vertex="1" parent="1">
                    <mxGeometry x="90" y="480" width="70" height="120" as="geometry"/>
                </mxCell>
                <mxCell id="51" value="" style="whiteSpace=wrap;html=1;fontSize=14;fillColor=#fa6800;fontColor=#000000;strokeColor=#C73500;" vertex="1" parent="1">
                    <mxGeometry x="180" y="480" width="70" height="120" as="geometry"/>
                </mxCell>
                <mxCell id="52" value="MEAL 1" style="whiteSpace=wrap;html=1;fontSize=14;" vertex="1" parent="1">
                    <mxGeometry x="90" y="520" width="70" height="80" as="geometry"/>
                </mxCell>
                <mxCell id="53" value="MEAL 2" style="whiteSpace=wrap;html=1;fontSize=14;" vertex="1" parent="1">
                    <mxGeometry x="180" y="520" width="70" height="80" as="geometry"/>
                </mxCell>
                <mxCell id="54" value="DIETS PLANS&amp;nbsp;" style="text;html=1;resizable=0;autosize=1;align=center;verticalAlign=middle;points=[];fillColor=none;strokeColor=none;rounded=0;fontSize=14;" vertex="1" parent="1">
                    <mxGeometry x="260" y="500" width="110" height="20" as="geometry"/>
                </mxCell>
                <mxCell id="55" value="" style="whiteSpace=wrap;html=1;fontSize=14;" vertex="1" parent="1">
                    <mxGeometry x="60" y="630" width="300" height="230" as="geometry"/>
                </mxCell>
                <mxCell id="56" value="CONTENT" style="whiteSpace=wrap;html=1;fontSize=14;" vertex="1" parent="1">
                    <mxGeometry x="95" y="640" width="240" height="30" as="geometry"/>
                </mxCell>
                <mxCell id="57" value="" style="whiteSpace=wrap;html=1;fontSize=14;fillColor=#fa6800;fontColor=#000000;strokeColor=#C73500;" vertex="1" parent="1">
                    <mxGeometry x="230" y="690" width="30" height="20" as="geometry"/>
                </mxCell>
                <mxCell id="58" value="" style="whiteSpace=wrap;html=1;fontSize=14;fillColor=#fa6800;fontColor=#000000;strokeColor=#C73500;" vertex="1" parent="1">
                    <mxGeometry x="265" y="690" width="30" height="20" as="geometry"/>
                </mxCell>
                <mxCell id="59" value="" style="whiteSpace=wrap;html=1;fontSize=14;fillColor=#fa6800;fontColor=#000000;strokeColor=#C73500;" vertex="1" parent="1">
                    <mxGeometry x="300" y="690" width="30" height="20" as="geometry"/>
                </mxCell>
                <mxCell id="60" value="" style="whiteSpace=wrap;html=1;fontSize=14;fillColor=#fa6800;fontColor=#000000;strokeColor=#C73500;" vertex="1" parent="1">
                    <mxGeometry x="230" y="730" width="30" height="20" as="geometry"/>
                </mxCell>
                <mxCell id="61" value="" style="whiteSpace=wrap;html=1;fontSize=14;fillColor=#fa6800;fontColor=#000000;strokeColor=#C73500;" vertex="1" parent="1">
                    <mxGeometry x="265" y="730" width="30" height="20" as="geometry"/>
                </mxCell>
                <mxCell id="62" value="" style="whiteSpace=wrap;html=1;fontSize=14;fillColor=#fa6800;fontColor=#000000;strokeColor=#C73500;" vertex="1" parent="1">
                    <mxGeometry x="300" y="730" width="30" height="20" as="geometry"/>
                </mxCell>
                <mxCell id="63" value="" style="whiteSpace=wrap;html=1;fontSize=14;fillColor=#fa6800;fontColor=#000000;strokeColor=#C73500;" vertex="1" parent="1">
                    <mxGeometry x="230" y="770" width="30" height="20" as="geometry"/>
                </mxCell>
                <mxCell id="64" value="" style="whiteSpace=wrap;html=1;fontSize=14;fillColor=#fa6800;fontColor=#000000;strokeColor=#C73500;" vertex="1" parent="1">
                    <mxGeometry x="265" y="770" width="30" height="20" as="geometry"/>
                </mxCell>
                <mxCell id="65" value="" style="whiteSpace=wrap;html=1;fontSize=14;fillColor=#fa6800;fontColor=#000000;strokeColor=#C73500;" vertex="1" parent="1">
                    <mxGeometry x="300" y="770" width="30" height="20" as="geometry"/>
                </mxCell>
                <mxCell id="66" value="TESTIMONIAL" style="whiteSpace=wrap;html=1;fontSize=9;labelBackgroundColor=default;" vertex="1" parent="1">
                    <mxGeometry x="70" y="710" width="70" height="40" as="geometry"/>
                </mxCell>
                <mxCell id="67" value="TESTIMONIAL" style="whiteSpace=wrap;html=1;fontSize=9;" vertex="1" parent="1">
                    <mxGeometry x="145" y="710" width="70" height="40" as="geometry"/>
                </mxCell>
                <mxCell id="68" value="TESTIMONIAL" style="whiteSpace=wrap;html=1;fontSize=9;" vertex="1" parent="1">
                    <mxGeometry x="70" y="790" width="70" height="40" as="geometry"/>
                </mxCell>
                <mxCell id="69" value="TESTIMONIAL" style="whiteSpace=wrap;html=1;fontSize=9;" vertex="1" parent="1">
                    <mxGeometry x="150" y="790" width="70" height="40" as="geometry"/>
                </mxCell>
                <mxCell id="70" value="" style="ellipse;whiteSpace=wrap;html=1;fontSize=14;fillColor=#fa6800;fontColor=#000000;strokeColor=#C73500;" vertex="1" parent="1">
                    <mxGeometry x="90" y="680" width="20" height="20" as="geometry"/>
                </mxCell>
                <mxCell id="71" value="" style="ellipse;whiteSpace=wrap;html=1;fontSize=14;fillColor=#fa6800;fontColor=#000000;strokeColor=#C73500;" vertex="1" parent="1">
                    <mxGeometry x="160" y="680" width="20" height="20" as="geometry"/>
                </mxCell>
                <mxCell id="72" value="" style="ellipse;whiteSpace=wrap;html=1;fontSize=14;fillColor=#fa6800;fontColor=#000000;strokeColor=#C73500;" vertex="1" parent="1">
                    <mxGeometry x="90" y="760" width="20" height="20" as="geometry"/>
                </mxCell>
                <mxCell id="73" value="" style="ellipse;whiteSpace=wrap;html=1;fontSize=14;fillColor=#fa6800;fontColor=#000000;strokeColor=#C73500;" vertex="1" parent="1">
                    <mxGeometry x="170" y="760" width="20" height="20" as="geometry"/>
                </mxCell>
                <mxCell id="75" value="&lt;font style=&quot;font-size: 14px&quot;&gt;GALLERY&lt;/font&gt;" style="text;html=1;resizable=0;autosize=1;align=center;verticalAlign=middle;points=[];fillColor=none;strokeColor=none;rounded=0;labelBackgroundColor=default;fontSize=9;" vertex="1" parent="1">
                    <mxGeometry x="240" y="800" width="80" height="20" as="geometry"/>
                </mxCell>
                <mxCell id="76" value="" style="whiteSpace=wrap;html=1;labelBackgroundColor=default;fontSize=14;" vertex="1" parent="1">
                    <mxGeometry x="60" y="860" width="300" height="100" as="geometry"/>
                </mxCell>
                <mxCell id="77" value="" style="whiteSpace=wrap;html=1;labelBackgroundColor=default;fontSize=14;fillColor=#fa6800;fontColor=#000000;strokeColor=#C73500;" vertex="1" parent="1">
                    <mxGeometry x="80" y="870" width="120" height="60" as="geometry"/>
                </mxCell>
                <mxCell id="78" value="" style="whiteSpace=wrap;html=1;labelBackgroundColor=default;fontSize=14;fillColor=#fa6800;fontColor=#000000;strokeColor=#C73500;" vertex="1" parent="1">
                    <mxGeometry x="215" y="870" width="120" height="60" as="geometry"/>
                </mxCell>
                <mxCell id="79" value="&lt;b&gt;PRICING&lt;/b&gt;" style="text;html=1;align=center;verticalAlign=middle;resizable=0;points=[];autosize=1;strokeColor=none;fillColor=none;fontSize=14;" vertex="1" parent="1">
                    <mxGeometry x="380" y="890" width="70" height="20" as="geometry"/>
                </mxCell>
                <mxCell id="80" value="" style="whiteSpace=wrap;html=1;labelBackgroundColor=default;fontSize=14;" vertex="1" parent="1">
                    <mxGeometry x="60" y="960" width="300" height="120" as="geometry"/>
                </mxCell>
                <mxCell id="81" value="" style="ellipse;whiteSpace=wrap;html=1;fontSize=14;fillColor=#fa6800;fontColor=#000000;strokeColor=#C73500;" vertex="1" parent="1">
                    <mxGeometry x="90" y="980" width="20" height="20" as="geometry"/>
                </mxCell>
                <mxCell id="82" value="" style="ellipse;whiteSpace=wrap;html=1;fontSize=14;fillColor=#fa6800;fontColor=#000000;strokeColor=#C73500;" vertex="1" parent="1">
                    <mxGeometry x="160" y="980" width="20" height="20" as="geometry"/>
                </mxCell>
                <mxCell id="83" value="" style="ellipse;whiteSpace=wrap;html=1;fontSize=14;fillColor=#fa6800;fontColor=#000000;strokeColor=#C73500;" vertex="1" parent="1">
                    <mxGeometry x="235" y="980" width="20" height="20" as="geometry"/>
                </mxCell>
                <mxCell id="84" value="" style="ellipse;whiteSpace=wrap;html=1;fontSize=14;fillColor=#fa6800;fontColor=#000000;strokeColor=#C73500;" vertex="1" parent="1">
                    <mxGeometry x="310" y="980" width="20" height="20" as="geometry"/>
                </mxCell>
                <mxCell id="85" value="" style="whiteSpace=wrap;html=1;labelBackgroundColor=default;fontSize=14;" vertex="1" parent="1">
                    <mxGeometry x="80" y="1010" width="40" height="60" as="geometry"/>
                </mxCell>
                <mxCell id="86" value="" style="whiteSpace=wrap;html=1;labelBackgroundColor=default;fontSize=14;" vertex="1" parent="1">
                    <mxGeometry x="150" y="1010" width="40" height="60" as="geometry"/>
                </mxCell>
                <mxCell id="87" value="" style="whiteSpace=wrap;html=1;labelBackgroundColor=default;fontSize=14;" vertex="1" parent="1">
                    <mxGeometry x="225" y="1010" width="40" height="60" as="geometry"/>
                </mxCell>
                <mxCell id="88" value="" style="whiteSpace=wrap;html=1;labelBackgroundColor=default;fontSize=14;" vertex="1" parent="1">
                    <mxGeometry x="300" y="1010" width="40" height="60" as="geometry"/>
                </mxCell>
                <mxCell id="89" value="&lt;b&gt;FEATURES&lt;/b&gt;" style="text;html=1;align=center;verticalAlign=middle;resizable=0;points=[];autosize=1;strokeColor=none;fillColor=none;fontSize=14;" vertex="1" parent="1">
                    <mxGeometry x="370" y="990" width="90" height="20" as="geometry"/>
                </mxCell>
                <mxCell id="90" value="" style="whiteSpace=wrap;html=1;labelBackgroundColor=default;fontSize=14;" vertex="1" parent="1">
                    <mxGeometry x="60" y="1080" width="300" height="90" as="geometry"/>
                </mxCell>
                <mxCell id="91" value="CONTENT" style="whiteSpace=wrap;html=1;labelBackgroundColor=default;fontSize=14;" vertex="1" parent="1">
                    <mxGeometry x="80" y="1090" width="200" height="60" as="geometry"/>
                </mxCell>
                <mxCell id="92" value="" style="whiteSpace=wrap;html=1;labelBackgroundColor=default;fontSize=14;fillColor=#fa6800;fontColor=#000000;strokeColor=#C73500;" vertex="1" parent="1">
                    <mxGeometry x="292.5" y="1110" width="45" height="20" as="geometry"/>
                </mxCell>
                <mxCell id="93" value="&lt;b&gt;CALL TO ACTION&lt;/b&gt;" style="text;html=1;align=center;verticalAlign=middle;resizable=0;points=[];autosize=1;strokeColor=none;fillColor=none;fontSize=14;" vertex="1" parent="1">
                    <mxGeometry x="370" y="1115" width="130" height="20" as="geometry"/>
                </mxCell>
                <mxCell id="94" value="FOOTER" style="whiteSpace=wrap;html=1;labelBackgroundColor=default;fontSize=14;" vertex="1" parent="1">
                    <mxGeometry x="60" y="1170" width="300" height="50" as="geometry"/>
                </mxCell>
                <mxCell id="95" value="&lt;b&gt;HOW IT WORKS&lt;/b&gt;" style="text;html=1;align=center;verticalAlign=middle;resizable=0;points=[];autosize=1;strokeColor=none;fillColor=none;fontSize=14;" vertex="1" parent="1">
                    <mxGeometry x="370" y="270" width="120" height="20" as="geometry"/>
                </mxCell>
                <mxCell id="96" value="&lt;b&gt;FEATURED IN&lt;/b&gt;" style="text;html=1;align=center;verticalAlign=middle;resizable=0;points=[];autosize=1;strokeColor=none;fillColor=none;fontSize=14;" vertex="1" parent="1">
                    <mxGeometry x="365" y="150" width="110" height="20" as="geometry"/>
                </mxCell>
            </root>
        </mxGraphModel>
    </diagram>
</mxfile>